# xmcd
#
# Track frame offsets:
#	150
#	15887
#	35632
#	59940
#	89675
#	114167
#	161990
#	181650
#	201592
#	235532
#	264680
#	293412
#	308232
#	321117
#
# Disc length: 4487
#
# Revision: 1
# Processed by: cddbd v1.5.1PL0 Copyright (c) Steve Scherf et al.
# Submitted via: CDex 1.40Release
# Normalized: r0:DSETVAR1,TDELIM( - )
#
DISCID=c211850e
DTITLE=Various Artist - Blues Guitar Heroes
DYEAR=1995
DGENRE=Blues
TTITLE0=Isaak Scott - Don't let my Baby ride
TTITLE1=Buster Benton - Leave me alone
TTITLE2=Jimmy Johnson - Looking for my Baby
TTITLE3=Luther Allison - You upset me Baby
TTITLE4=Byther Smith - Hold that Train
TTITLE5=Jimi Hendrix - Red House
TTITLE6=Fenton Robinson - Somebody loan me a Dime
TTITLE7=Earl Hooker - The End of the Blues
TTITLE8=Albert Collins - I've got a Mind to Travel
TTITLE9=Buddy Guy and Junior Wells - How can one Woman treat a Man so mean
TTITLE10=Buddy Guy - First Time I met the Blues
TTITLE11=Billy Boy Arnold and Tony McPhee - Don't stayout all Night
TTITLE12=Muddy Waters - Hoochie Coochie Man
TTITLE13=Sunnyland Slim - I had it so Hard
EXTD=YEAR: 1995 ID3G: 0
EXTT0=
EXTT1=
EXTT2=
EXTT3=
EXTT4=
EXTT5=
EXTT6=
EXTT7=
EXTT8=
EXTT9=
EXTT10=
EXTT11=
EXTT12=
EXTT13=
PLAYORDER=
